<?xml version="1.0" encoding="utf-8"?>
<!-- Generator: Adobe Illustrator 22.1.0, SVG Export Plug-In . SVG Version: 6.00 Build 0)  -->
<svg version="1.1" id="Layer_1" xmlns="http://www.w3.org/2000/svg" xmlns:xlink="http://www.w3.org/1999/xlink" x="0px" y="0px"
	 viewBox="0 0 1559 1559" style="enable-background:new 0 0 1559 1559;" xml:space="preserve">
<g>
	<path id="main-logo-svg-path" d="M596.8,1325.1V849.5c116,0,353.8,11.6,353.8,226.2C950.6,1313.5,649,1325.1,596.8,1325.1 M973.8,704.5
		c-98.6-46.4-197.2-58-377-58V368h191.4c162.4,0,290-40.6,348-98.6V20c-87,63.8-185.6,121.8-348,121.8H364.8v1380.5
		c290,0,469.8-5.8,609-75.4c145-75.4,220.4-208.8,220.4-382.8C1194.2,895.9,1118.8,774.1,973.8,704.5"/>
</g>
</svg>
